<svg width="36" height="36" viewBox="0 0 36 36" fill="none" xmlns="http://www.w3.org/2000/svg">
<path fill-rule="evenodd" clip-rule="evenodd" d="M14.7502 9.4707H21.2502C24.2412 9.4707 26.6668 11.8963 26.6668 14.8874V21.3874C26.6668 24.3785 24.2412 26.804 21.2502 26.804H14.7502C11.7591 26.804 9.3335 24.3785 9.3335 21.3874V14.8874C9.3335 11.8963 11.7591 9.4707 14.7502 9.4707ZM21.2502 25.179C23.341 25.179 25.0419 23.4782 25.0419 21.3874V14.8874C25.0419 12.7965 23.341 11.0957 21.2502 11.0957H14.7502C12.6594 11.0957 10.9585 12.7965 10.9585 14.8874V21.3874C10.9585 23.4782 12.6594 25.179 14.7502 25.179H21.2502Z" fill="#1FA7FF"/>
<path fill-rule="evenodd" clip-rule="evenodd" d="M13.3335 18.1361C13.3335 15.743 15.2737 13.8027 17.6668 13.8027C20.0599 13.8027 22.0002 15.743 22.0002 18.1361C22.0002 20.5292 20.0599 22.4694 17.6668 22.4694C15.2737 22.4694 13.3335 20.5292 13.3335 18.1361ZM14.9586 18.136C14.9586 19.6288 16.1741 20.8443 17.6669 20.8443C19.1597 20.8443 20.3752 19.6288 20.3752 18.136C20.3752 16.6421 19.1597 15.4276 17.6669 15.4276C16.1741 15.4276 14.9586 16.6421 14.9586 18.136Z" fill="#1FA7FF"/>
<ellipse cx="21.9915" cy="13.4798" rx="0.577416" ry="0.577417" fill="#1FA7FF"/>
<rect x="1" y="1" width="34" height="34" rx="17" stroke="#1FA7FF" stroke-width="2"/>
</svg>
