<svg width="48" height="48" viewBox="0 0 48 48" fill="none" xmlns="http://www.w3.org/2000/svg">
<rect width="48" height="48" rx="24" fill="#1FA7FF"/>
<path d="M25.5443 22.4565C24.7252 21.6377 23.6144 21.1777 22.4563 21.1777C21.2981 21.1777 20.1874 21.6377 19.3683 22.4565L16.2793 25.5444C15.4602 26.3636 15 27.4745 15 28.6329C15 29.7914 15.4602 30.9023 16.2793 31.7215C17.0984 32.5406 18.2094 33.0007 19.3678 33.0007C20.5262 33.0007 21.6372 32.5406 22.4563 31.7215L24.0003 30.1775" stroke="white" stroke-width="2" stroke-linecap="round" stroke-linejoin="round"/>
<path d="M22.4561 25.5443C23.2752 26.3631 24.3859 26.823 25.5441 26.823C26.7022 26.823 27.8129 26.3631 28.6321 25.5443L31.7211 22.4563C32.5402 21.6372 33.0004 20.5262 33.0004 19.3678C33.0004 18.2094 32.5402 17.0984 31.7211 16.2793C30.9019 15.4602 29.791 15 28.6326 15C27.4741 15 26.3632 15.4602 25.5441 16.2793L24.0001 17.8233" stroke="white" stroke-width="2" stroke-linecap="round" stroke-linejoin="round"/>
</svg>
