<svg width="36" height="36" viewBox="0 0 36 36" fill="none" xmlns="http://www.w3.org/2000/svg">
<rect width="36" height="36" rx="18" fill="#1FA7FF"/>
<path d="M26.4441 12.5127C25.783 12.8027 25.0785 12.9949 24.3441 13.0883C25.0997 12.6372 25.6763 11.9283 25.9474 11.0738C25.243 11.4938 24.4652 11.7905 23.6363 11.9561C22.9675 11.2438 22.0141 10.8027 20.9741 10.8027C18.9564 10.8027 17.332 12.4405 17.332 14.4482C17.332 14.7371 17.3564 15.0149 17.4164 15.2794C14.3864 15.1316 11.7054 13.6794 9.90427 11.4672C9.58983 12.0127 9.40538 12.6372 9.40538 13.3094C9.40538 14.5716 10.0554 15.6905 11.0243 16.3382C10.4387 16.3271 9.86427 16.1571 9.37761 15.8893C9.37761 15.9005 9.37761 15.9149 9.37761 15.9293C9.37761 17.7004 10.6409 19.1715 12.2976 19.5104C12.0009 19.5915 11.6776 19.6304 11.342 19.6304C11.1087 19.6304 10.8731 19.6171 10.652 19.5682C11.1243 21.0115 12.4642 22.0726 14.0576 22.1071C12.8176 23.077 11.2431 23.6615 9.53872 23.6615C9.23983 23.6615 8.95317 23.6481 8.6665 23.6115C10.2809 24.6526 12.1942 25.247 14.2576 25.247C20.9641 25.247 24.6308 19.6915 24.6308 14.876C24.6308 14.7149 24.6252 14.5594 24.6174 14.4049C25.3408 13.8916 25.9485 13.2505 26.4441 12.5127Z" fill="white"/>
</svg>
